/* XPM */
static char *_ac8779edbd6445dfd1d5620b13e6b44KxLTTZ6cRXg7Ms6V[] = {
/* columns rows colors chars-per-pixel */
"64 64 39 1 ",
"  c #47885F",
". c #4B9162",
"X c #4D9565",
"o c #4F9964",
"O c #4F996B",
"+ c #519665",
"@ c #509B66",
"# c #509A6B",
"$ c #569C6A",
"% c #579C6A",
"& c #549F6F",
"* c #4F9773",
"= c #509673",
"- c #539F73",
"; c #56A47E",
": c #5EB29A",
"> c #7EB38A",
", c #63B9AD",
"< c #65BCB2",
"1 c #68BEBA",
"2 c #70C8D3",
"3 c #7ADAFC",
"4 c #7BDBFF",
"5 c #8CBB96",
"6 c #96C19D",
"7 c #A6CAAD",
"8 c #BED8BE",
"9 c #86CED0",
"0 c #9CE3FC",
"q c #CCE0C9",
"w c #D3E2CD",
"e c #D6E4D0",
"r c #DEE9D6",
"t c #EAEEDE",
"y c #ECF0E1",
"u c #EDF1E3",
"i c #F5F5E8",
"p c #FCF8ED",
"a c FloralWhite",
/* pixels */
"@@@@@@@@@@@@@@@@@@@@@@@@@@@@@@@@@@@@@@@@@@@@@@@@@@@@@@@@@@@@@@@@",
"@@@@@@@@@@@@@@@@@@@@@@@@@@@@@@@@@@@@@@@@@@@@@@@@@@@@@@@@@@@@@@@@",
"@@@@@@@@@@@@@@@@@@@@@@@@@@@@@@@@@@@@@@@@@@@@@@@@@@@@@@@@@@@@@@@@",
"@@@@@@@@@@@@@@@@@@@@@@@@@@@@@@@@@@@@@@@@@@@@@@@@@@@@@@@@@@@@@@@@",
"@@@@@@@@@@@@@@@@@@@@@@@@@@@@@@@@@@@@@@@@@@@@@@@@@@@@@@@@@@@@@@@@",
"@@@@@@@@@@@@@@@@@@@@@@@@@@@@@@@@@@@@@@@@@@@@@@@@@@@@@@@@@@@@@@@@",
"@@@@@@@@@@@@@@@@@@@@@@@@@@@@@@@@@@@@@@@@@@@@@@@@@@@@@@@@@@@@@@@@",
"@@@@@@@@@@@@@@@@@@@@@@@@@@@@@@@@@@@@@@@@@@@@@@@@@@@@@@@@@@@@@@@@",
"@@@@@@@@@@@@@@@@@@@@@>eeeeeeeeeeeeeeeeeeeew@@@@@@@@@@@@@@@@@@@@@",
"@@@@@@@@@@@@@@@@@@@@@5aaaaaaaaaaaaaaaaaaaap@@@@@@@@@@@@@@@@@@@@@",
"@@@@@@@@@@@@@@@@@@@@@5aaaaaaaaaaaaaaaaaaaap@@@@@@@@@@@@@@@@@@@@@",
"@@@@@@@@@@@@@@@@@@@@@5aaaaaaaaaaaaaaaaaaaap@@@@@@@@@@@@@@@@@@@@@",
"@@@@@@@@@@@@@@@@@@@@@5aaaaaaaaaaaaaaaaaaaap#@@@@@@@@@@@@@@@@@@@@",
"@@@@@@@@@@@@@@@@@@@@@5aaaaaaaaaaaaaaaaaaaapo@@@@@@@@@@@@@@@@@@@@",
"@@@@@@@@@@@@@@@@@@@@@5aaaaaaaaaaaaaaaaaaaap+@@@@@@@@@@@@@@@@@@@@",
"@@@@@@@@@@@@@@@@@@@@@5aaaaaaaaaaaaaaaaaaaap@@@@@@@@@@@@@@@@@@@@@",
"@@@@@@@@@@@@@@6rrrrrrtaaaaaaaaaaaaaaaaaaaaarrrrrrr+@@@@@@@@@@@@@",
"@@@@@@@@@@@@@@7aaaaaaaaaaaaaaaaaaaaaaaaaaaaaaaaapa+@@@@@@@@@@@@@",
"@@@@@@@@@@@@@@7aaaaaaaaaaaaaaaaaaaaaaaaaaaaaaaaaaa+@@@@@@@@@@@@@",
"@@@@@@@@@@@@@@7aaaaaaaaaaaaaaaaaaaaaaaaaaaaaaaaaaa+@@@@@@@@@@@@@",
"@@@@@@@@@@@@@@7aaaaaaaaaaaaaaaaaaaaaaaaaaaaaaaaaaa+@@@@@@@@@@@@@",
"@@@@@@@@@@@@@@7aaaaaaaaaaaaaaaaaaaaaaaaaaaaaaaaaaa+@@@@@@@@@@@@@",
"@@@@@@@@@@@@@@7aaaaaaaaaaaaaaaaaaaaaaaaaaaaaaaaaaa+@@@@@@@@@@@@@",
"@@@@@@@@@@@@@@7aaaaaaaaaaaaaaaaaaaaaaaaaaaaaaaaaaa+@@@@@@@@@@@@@",
"@@@@@@@8yyyyyyiaaaaaaaaaaaaaaaaaaaaaaaaaaaaaaaaaaayyyyyyy$@@@@@@",
"@@@@@@@qaaaaaaaaaaaaaaaaaaaaaaaaaaaaaaaaaaaaaaaaaaaaaaaaa$@@@@@@",
"@@@@@@@qaaaaaaaaaaaaaaaaaaaaaaaaaaaaaaaaaaaaaaaaaaaaaaaaa$@@@@@@",
"@@@@@@@qaaaaaaaaaaaaaaaaaaaaaaaaaaaaaaaaaaaaaaaaaaaaaaaaa$@@@@@@",
"@@@@@@@qaaaaaaaaaaaaaaaaaaaaaaaaaaaaaaaaaaaaaaaaaaaaaaaaa%@@@@@@",
"@@@@@@@qaaaaaaaaaaaaaaaaaaaaaaaaaaaaaaaaaaaaaaaaaaaaaaaaa%@@@@@@",
"@@@@@@@qaaaaaaaaaaaaaaaaaaaaaaaaaaaaaaaaaaaaaaaaaaaaaaaaa$@@@@@@",
"@@@@@@@qaaaaaaaaaaaaaaaaaaaaaaaaaaaaaaaaaaaaaaaaaaaaaaaaa$@@@@@@",
"@@@@@@@90000000000000000000000000000000000000000000000000#@@@@@@",
"@@@@@@@24444444444444444444444444444444444444444444444444#@@@@@@",
"@@@@@@@24444444444444444444444444444444444444444444444444#@@@@@@",
"@@@@@@@24444444444444444444444444444444444444444444444444#@@@@@@",
"@@@@@@@24444444444444444444444444444444444444444444444444#@@@@@@",
"@@@@@@@24444444444444444444444444444444444444444444444444#@@@@@@",
"@@@@@@@24444444444444444444444444444444444444444444444444#@@@@@@",
"@@@@@@@24444444444444444444444444444444444444444444444444#@@@@@@",
"@@@@@@@&;&&;&O144444444444444444444444444444444443;;;&;&;o@@@@@@",
"@@@@@@@@@@@@Oo<44444444444444444444444444444444443.Oooo@@o@@@@@@",
"@@@@@@@@@@@@o@<44444444444444444444444444444444444Xooo@@@@@@@@@@",
"@@@@@@@@@@@@@@<44444444444444444444444444444444444oooo@@@@@@@@@@",
"@@@@@@@@@@@@@@<44444444444444444444444444444444444oo@@@@@@@@@@@@",
"@@@@@@@@@@@@@@<44444444444444444444444444444444444o@@@@@@@@@@@@@",
"@@@@@@@@@@@@@@<44444444444444444444444444444444444Xo@@@@@@@@@@@@",
"@@@@@@@@@@@@@@,44444444444444444444444444444444444oo@@@@@@@@@@@@",
"@@@@@@@@@@@@@@X      ,444444444444444444444       o@@@@@@@@@@@@@",
"@@@@@@@@@@@@@@oo@@@@@:444444444444444444444o@@@@oo@@@@@@@@@@@@@@",
"@@@@@@@@@@@@@@@@@@@@@:444444444444444444444o@@@@@@@@@@@@@@@@@@@@",
"@@@@@@@@@@@@@@@@@@@@@:444444444444444444444@@@@@@@@@@@@@@@@@@@@@",
"@@@@@@@@@@@@@@@@@@@@@:444444444444444444443o@@@@@@@@@@@@@@@@@@@@",
"@@@@@@@@@@@@@@@@@@@@@:444444444444444444444o@@@@@@@@@@@@@@@@@@@@",
"@@@@@@@@@@@@@@@@@@@@@:444444444444444444443o@@@@@@@@@@@@@@@@@@@@",
"@@@@@@@@@@@@@@@@@@@@@:444444444444444444444@@@@@@@@@@@@@@@@@@@@@",
"@@@@@@@@@@@@@@@@@@@@@O********************=@@@@@@@@@@@@@@@@@@@@@",
"@@@@@@@@@@@@@@@@@@@@@@@@@@@@@@@@@o@@@@@@@@@@@@@@@@@@@@@@@@@@@@@@",
"@@@@@@@@@@@@@@@@@@@@@@@@@@@@@@@@@@@@@@@@@@@@@@@@@@@@@@@@@@@@@@@@",
"@@@@@@@@@@@@@@@@@@@@@@@@@@@@@@@@@@@@@@@@@@@@@@@@@@@@@@@@@@@@@@@@",
"@@@@@@@@@@@@@@@@@@@@@@@@@@@@@@@@@@@@@@@@@@@@@@@@@@@@@@@@@@@@@@@@",
"@@@@@@@@@@@@@@@@@@@@@@@@@@@@@@@@@@@@@@@@@@@@@@@@@@@@@@@@@@@@@@@@",
"@@@@@@@@@@@@@@@@@@@@@@@@@@@@@@@@@@@@@@@@@@@@@@@@@@@@@@@@@@@@@@@@",
"@@@@@@@@@@@@@@@@@@@@@@@@@@@@@@@@@@@@@@@@@@@@@@@@@@@@@@@@@@@@@@@@"
};
