/* XPM */
static char *_54f8f7a4dfd4b8895e345c2da54737fKBT9HDOz2VVIkZAS[] = {
/* columns rows colors chars-per-pixel */
"64 64 231 2 ",
"   c #0B0909",
".  c #171717",
"X  c #171817",
"o  c #1A1A1A",
"O  c #18221A",
"+  c #3C1E37",
"@  c #1D3122",
"#  c #282A28",
"$  c #28352B",
"%  c #392D39",
"&  c #2C3830",
"*  c #373837",
"=  c #41243D",
"-  c #26442F",
";  c #2A4532",
":  c #264932",
">  c #2B4D35",
",  c #39433C",
"<  c #2D5037",
"1  c #2E5339",
"2  c #32593D",
"3  c #514B35",
"4  c #6E5638",
"5  c #7C643A",
"6  c #3D3644",
"7  c #532E4E",
"8  c #4D344A",
"9  c #62345C",
"0  c #77276C",
"q  c #6B3B66",
"w  c #74396D",
"e  c #7D2D72",
"r  c #783872",
"t  c #3D4D45",
"y  c #3A5943",
"u  c #386646",
"i  c #3E754E",
"p  c #3F7850",
"a  c #464A48",
"s  c #47544B",
"d  c #574E52",
"f  c #4E5550",
"g  c #4D5A53",
"h  c #535A55",
"j  c #575A5A",
"k  c #70554E",
"l  c #486652",
"z  c #496B54",
"x  c #54675B",
"c  c #487657",
"v  c #694666",
"b  c #72426C",
"n  c #704C6D",
"m  c #685667",
"M  c #70526E",
"N  c #7B4978",
"B  c #795776",
"V  c #5D6962",
"C  c #5B7865",
"Z  c #636465",
"A  c #67696A",
"S  c #6B6C6C",
"D  c #766A64",
"F  c #66716B",
"G  c #7A677A",
"H  c #6E7271",
"J  c #6A7B72",
"K  c #757371",
"L  c #757677",
"P  c #7A7B7E",
"I  c #866D34",
"U  c #81356A",
"Y  c #85397B",
"T  c #8A5F51",
"R  c #976748",
"E  c #916F52",
"W  c #A67748",
"Q  c #AC7B4B",
"!  c #82457B",
"~  c #81577D",
"^  c #8A706A",
"/  c #957967",
"(  c #A47E62",
")  c #47885A",
"_  c #4B905F",
"`  c #558766",
"'  c #4E9763",
"]  c #569167",
"[  c #509B66",
"{  c #6A8474",
"}  c #6B8976",
"|  c #76837B",
" . c #74847B",
".. c #659373",
"X. c #AA814F",
"o. c #B98749",
"O. c #B98950",
"+. c #97886F",
"@. c #A78164",
"#. c #AF8B6F",
"$. c #BA9C7B",
"%. c #C68F48",
"&. c #C39052",
"*. c #C29A69",
"=. c #7E5583",
"-. c #7D7B80",
";. c #902E81",
":. c #8C3C82",
">. c #943687",
",. c #9A3B8D",
"<. c #9E3B91",
"1. c #A23A95",
"2. c #8A4483",
"3. c #95458B",
"4. c #885887",
"5. c #95568B",
"6. c #9D4291",
"7. c #9A4C91",
"8. c #9B5896",
"9. c #A34598",
"0. c #AA459E",
"q. c #A54B9B",
"w. c #A94B9E",
"e. c #A2559A",
"r. c #A4589C",
"t. c #876B87",
"y. c #92658D",
"u. c #877A89",
"i. c #9B6596",
"p. c #8E7790",
"a. c #937D93",
"s. c #987896",
"d. c #A2699D",
"f. c #A2779F",
"g. c #AE47A1",
"h. c #AC4CA2",
"j. c #B04CA5",
"k. c #B64EAA",
"l. c #AC53A3",
"z. c #A95BA7",
"x. c #AB5CA4",
"c. c #B453AA",
"v. c #B555AA",
"b. c #B45CAB",
"n. c #BA5AB1",
"m. c #AD63A6",
"M. c #B568AD",
"N. c #A575A2",
"B. c #A977A4",
"V. c #BC63B2",
"C. c #BB6AB3",
"Z. c #B776B1",
"A. c #C25DB7",
"S. c #C467BA",
"D. c #C46CBC",
"F. c #C771BF",
"G. c #CA72C2",
"H. c #D070C6",
"J. c #D473CA",
"K. c #768280",
"L. c #7D8381",
"P. c #7C8C83",
"I. c #7D9286",
"U. c #828485",
"Y. c #848788",
"T. c #868A89",
"R. c #8A8B8B",
"E. c #9E8E88",
"W. c #86938C",
"Q. c #8E8C91",
"!. c #988599",
"~. c #8E9695",
"^. c #919294",
"/. c #97999A",
"(. c #B49A82",
"). c #99A39D",
"_. c #BBA588",
"`. c #A0A491",
"'. c #B8A596",
"]. c #9E99A1",
"[. c #A587A5",
"{. c #A799A9",
"}. c #B98AB8",
"|. c #B19CB2",
" X c #9CA2A2",
".X c #9BA9A0",
"XX c #A4A6A9",
"oX c #A7A7AB",
"OX c #A4ABAA",
"+X c #ADB2A9",
"@X c #AEABB2",
"#X c #B6A6B8",
"$X c #ADB3B3",
"%X c #AAB9B4",
"&X c #B1B4B6",
"*X c #B3B5BA",
"=X c #B5BABC",
"-X c #BAB9BD",
";X c #C2A98B",
":X c #C8AF94",
">X c #C6B8AA",
",X c #AFC0B7",
"<X c #B5C6BD",
"1X c #C8C2B2",
"2X c #D2CABB",
"3X c #BDA5C2",
"4X c #BCBDC2",
"5X c #CA92C7",
"6X c #C3BBC8",
"7X c #CFB1D1",
"8X c #BDC2C4",
"9X c #C6C7C8",
"0X c #C4C6CB",
"qX c #C4C9CC",
"wX c #C9CDCE",
"eX c #D9D3C6",
"rX c #CCCAD3",
"tX c #CDCBD3",
"yX c #CDD3D5",
"uX c #CDDBD9",
"iX c #D3D5DB",
"pX c #D4DADB",
"aX c #E5DCCC",
"sX c #DDC8E0",
"dX c #DBDBE2",
"fX c #DDE5E5",
"gX c #E3E6EA",
"hX c #E4E9EB",
"jX c #E5F5EF",
"kX c #E9EDF1",
"lX c #F7FBFD",
/* pixels */
"[ [ [ [ [ [ [ [ [ [ [ [ [ [ [ [ [ [ [ [ [ [ [ [ [ [ [ [ [ [ [ [ [ [ [ [ [ [ [ [ [ [ [ [ [ [ [ [ [ [ [ [ [ [ [ [ [ [ [ [ [ [ [ [ ",
"[ [ [ [ [ [ [ [ [ [ [ [ [ [ [ [ [ [ [ [ [ [ [ [ [ [ [ [ [ [ [ [ [ [ [ [ [ [ [ [ [ [ [ [ [ [ [ [ [ [ [ [ [ [ [ [ [ [ [ [ [ [ [ [ ",
"[ [ [ [ [ [ [ [ [ [ [ [ [ [ [ [ [ [ [ [ [ [ [ [ [ [ [ [ [ [ [ [ [ [ [ [ [ [ [ [ [ [ [ [ [ [ [ [ [ [ [ [ [ [ [ [ [ [ [ [ [ [ [ [ ",
"[ [ [ [ [ [ [ [ [ [ [ [ [ [ [ [ [ [ [ [ [ [ [ [ [ [ [ [ [ [ [ [ [ [ [ [ [ [ [ [ [ [ [ [ [ [ [ [ [ [ [ [ [ [ [ [ [ [ [ [ [ [ [ [ ",
"[ [ [ [ [ [ [ [ [ [ [ [ [ [ [ [ [ [ [ [ [ [ [ [ [ [ [ [ [ [ [ [ [ [ [ [ [ [ [ [ [ [ [ [ [ [ [ [ [ [ [ [ [ [ [ [ [ [ [ [ [ [ [ [ ",
"[ [ [ [ [ [ [ [ [ [ [ [ [ [ [ [ [ [ [ [ [ [ [ [ [ [ [ [ [ [ [ [ [ [ [ [ [ [ [ [ [ [ [ [ [ [ [ [ [ [ [ [ [ [ [ [ [ [ [ [ [ [ [ [ ",
"[ [ [ [ [ [ [ [ [ [ [ [ [ [ [ [ [ [ [ [ [ [ [ [ [ [ [ [ [ [ [ [ [ [ [ [ [ [ [ [ [ [ [ [ [ [ [ [ [ [ [ [ [ [ [ [ [ [ [ [ [ [ [ [ ",
"[ [ [ [ [ [ [ [ [ [ [ [ [ [ [ [ [ [ [ [ [ [ [ [ [ [ [ [ [ [ [ [ [ [ [ [ [ [ [ [ [ [ [ [ [ [ [ [ [ [ [ [ [ [ [ [ [ [ [ [ [ [ [ [ ",
"[ [ [ [ [ [ [ [ [ [ [ [ [ [ [ [ [ [ [ [ [ [ [ [ [ [ [ [ [ [ [ [ [ [ [ [ [ [ [ [ [ [ [ [ [ [ [ [ [ [ [ [ [ [ [ [ [ [ [ [ [ [ [ [ ",
"[ [ [ [ [ [ [ [ [ [ [ [ [ [ [ [ [ [ [ [ [ [ [ [ [ [ [ [ [ [ [ [ [ [ [ [ [ [ [ [ [ [ [ [ [ [ [ [ [ [ [ [ [ [ [ [ [ [ [ [ [ [ [ [ ",
"[ [ [ [ [ [ [ [ [ [ [ [ [ [ [ [ [ [ [ [ [ [ [ [ [ [ [ [ [ [ [ [ [ [ [ [ [ [ [ ' [ [ [ [ [ [ [ [ [ [ [ [ [ [ [ [ [ [ [ [ [ [ [ [ ",
"[ [ [ [ [ [ [ [ [ [ i i 2 1 u i u < < < > 2 u i u > : y ) [ [ [ [ [ [ ) y ; : i ' _ 2 : 1 > < c ' ) 1 : 1 1 [ [ [ [ [ [ [ [ [ [ ",
"[ [ [ [ [ [ [ [ [ [ u u l x l u x C t @ @ & y l z x t y ) [ [ [ [ [ [ ) ; & x l u u s < $ ; s 2 u l x s $ $ ' [ [ [ [ [ [ [ [ [ ",
"[ [ [ [ [ [ [ [ [ ' 1 2  .qX/.H %XyXJ @ O & s L.4X8X~.C ' [ [ [ [ [ [ ` @ a 4X X# $ L A & s | f O V 0XT.O o ' [ [ [ [ [ [ [ [ [ ",
"[ [ [ [ [ [ [ [ [ [ < < ~.lXpX X#X3Xs.v v M S ].gXlX4XL.P.....] ] ....` # Z kXiXh a Q.p.M ~ !.A , ).lXOXo X [ [ [ [ [ [ [ [ [ [ ",
"[ [ [ [ [ [ [ [ [ [ 1 2  .gXfX@X-.b 5.V.C.m.N -.qXfX4XQ.P.-.-.+.L.L.T.H f P iXuXW.G 4.e.V.x.8.~ L ,XgX~.O X [ [ [ [ [ [ [ [ [ [ ",
"[ [ [ [ [ [ [ [ [ [ 1 1 J 0X4Xa.b 0 q.J.J.S.8.~ u.XX=XOXK g h h h h f F /.$X$XXX[.i.7.c.G.S.9.8.f.@X@XF o . [ [ [ [ [ [ [ [ [ [ ",
"[ [ [ [ [ [ [ [ [ [ 1 1 V XXa.b e >.l.D.H.S.c.:.8 f OX=XV # & * * $ # F qXuXP.B 8.l.w.b.S.n.r.h.l.i.K a o . [ [ [ [ [ [ [ [ [ [ ",
"[ [ [ [ [ [ [ [ [ [ 1 1 { -X!.q 0 ,.c.F.F.S.k.:.+ & U.{.M 7 9 v v q 9 B |.XXF M e.j.w.b.S.V.l.j.h.i.H a . . [ [ [ [ [ [ [ [ [ [ ",
"[ [ [ [ [ [ [ [ [ [ 1 1 I.dX{.q e ,.c.D.F.S.v.:.8 * Z t.! 1.b.D.S.M.l.3.N m j G e.j.q.b.S.V.l.w.h.B.R.g o . [ [ [ [ [ [ [ [ [ [ ",
"[ [ [ [ [ [ [ [ [ [ 1 1 W.hX{.b Y w.j.h.0.0.k.e.8 & v 5.>.0.A.J.H.S.A.0.:.q d M r.c.g.h.c.h.0.g.l.N.^.h o . [ [ [ [ [ [ [ [ [ [ ",
"[ [ [ [ [ [ [ [ [ [ 1 1  .pX[.q 8.S.w.>.;.,.v.r.d * r 9.>.6.b.D.D.V.l.w.l.5.q w q.b.l.9.>.,.w.l.l.N.R.f o . [ [ [ [ [ [ [ [ [ [ ",
"[ [ [ [ [ [ [ [ [ [ 1 1  .qXs.q 8.D.5.N y.N.d.5.N b 3.1.>.1.b.F.S.V.l.l.c.q.:.w q 4.B.5.9 w N.C.0.8.P s . . [ [ [ [ [ [ [ [ [ [ ",
"[ [ [ [ [ [ [ [ [ [ 1 1 { qX!.b i.}.!.-.$X4XQ.B 5.l.q.,.>.6.b.D.D.V.b.w.l.h.w.w % Z #X!.* j #X5Xl.i.-.s o . [ [ [ [ [ [ [ [ [ [ ",
"[ [ [ [ [ [ [ [ [ [ 1 1  .fX6X[.#XrX*X$XuXpX).G i.c.h.,.Y <.v.F.D.M.l.w.r.l.j.r # V 0X9XP ~.tX7X}.3X4XK o . [ [ [ [ [ [ [ [ [ [ ",
"[ [ [ [ [ [ [ [ [ [ 1 1  .gXhXyXfXfXiXyXgXpX+Xu.i.h.9.6.>.9.b.F.S.V.l.e.l.l.0.w % F yXhX8XqXgXiX8XdXfXR.o . [ [ [ [ [ [ [ [ [ [ ",
"[ [ [ [ [ [ [ [ [ [ : > F =XwXeXeXeX2X2XeX2X`.u.i.h.9.6.6.w.V.F.F.S.M.l.w.w.0.w % V 1XaX2X2X2X2X,XeXwXL o . [ [ [ [ [ [ [ [ [ [ ",
"[ [ [ [ [ [ [ [ [ [ 2 1 t K /.'.:X;X_.;X:X_.+.D 5.h.q.6.q.l.V.D.S.V.v.b.b.l.0.r * h $.:X_._.;X;X_.'./.j o o [ [ [ [ [ [ [ [ [ [ ",
"[ [ [ [ [ [ [ [ [ [ p p : * P '.(.( ( ( ( ( k k 5.j.l.q.1.<.0.0.g.0.1.0.b.b.0.r % 3 / #.( ( ( ( ( +.-.g y 2 [ [ [ [ [ [ [ [ [ [ ",
"[ [ [ [ [ [ [ [ [ [ [ [ : o D '.#.R R R R T 4 k 4.c.l.q.6.>.:.>.>.>.:.9.V.S.l.r % 3 T R T R R R R ^ L c [ [ [ [ [ [ [ [ [ [ [ [ ",
"[ [ [ [ [ [ [ [ [ [ [ [ > . D '.#.R R R R R 4 k 5.n.w.e.B.[.y.B n B p.N.i.l.v.2.8 3 R W R R R W R ^ L ` [ [ [ [ [ [ [ [ [ [ [ [ ",
"[ [ [ [ [ [ [ [ [ [ [ ' : o D :X$.W W Q o.W 5 k 8.n.e.i.].).W.K h Z ).XXt.5.b.2.* 3 R o.X.Q Q Q W / L { [ [ [ [ [ [ [ [ [ [ [ [ ",
"[ [ [ [ [ [ [ [ [ [ [ [ :   k $.*.o.o.&.%.o.I k 3.l.d.u.S F | K a f | /./.N.d.r % 3 W %.o.o.o.%.o.E j c [ [ [ [ [ [ [ [ [ [ [ [ ",
"[ [ [ [ [ [ [ [ [ [ ' [ : $ D $.*.O.o.O.O.o.R k U 3.[.W.a * S K 3 * Z ^.$X@Xp.v 6 d X.%.O.O.O.O.&.@.A l _ _ [ [ [ [ [ [ [ [ [ [ ",
"[ [ [ [ [ [ [ [ [ [ u u x ).>X>X_.+.^ T T ^ +.L 8 7 {..Xa O Z A & # j ~.4X*Xu.m -.G / / E ^ / #.;X>X&XF ; ; [ [ [ [ [ [ [ [ [ [ ",
"[ [ [ [ [ [ [ [ [ [ > > P.lXkX-X{.Y.=.=.N 4.p.-.s h $X4XS a P P f a G XXqX8X~.L.L.-.-.4.=.=.t.u.E.eXkX^.o . [ [ [ [ [ [ [ [ [ [ ",
"[ [ [ [ [ [ [ [ [ [ > 1 I.kXuX/.p.3.8.z.b.8.N A U.OXqXqX$XXX*X%X). X*XqXuXyX8XW.h d 5.z.z.z.8.n d ).kX/.o o [ [ [ [ [ [ [ [ [ [ ",
"[ [ [ [ [ [ [ [ [ [ 1 1 | iX%XG r <.k.G.J.M.Y q !.8XqXqXyXyX0X4X4X6XqXtXtXrXqXR.a 7 6.A.S.S.v.w % P 0XY.o . [ [ [ [ [ [ [ [ [ [ ",
"[ [ [ [ [ [ [ [ [ [ 1 1 J qX].n e ,.c.G.G.S.9.Y m P OX8X+X/.!.p.p.p.Q.XX=X*X Xu.N 2.q.n.S.S.v.,.N p./.x o . ] [ [ [ [ [ [ [ [ [ ",
"[ [ [ [ [ [ [ [ [ [ 1 1  .0X[.q e ,.c.C.D.S.v.:.= ; T.OXY.M N ! ! ! N G U.P.P t.z.k.h.v.C.V.l.l.v.d.P a o . [ [ [ [ [ [ [ [ [ [ ",
"[ [ [ [ [ [ [ [ [ [ 1 1 I.dX{.q 0 >.c.G.G.V.k.:.8 * J ^.4.2.e.x.m.r.e.N a l P s.z.h.h.b.D.S.h.h.h.N.Y.f o . [ [ [ [ [ [ [ [ [ [ ",
"[ [ [ [ [ [ [ [ [ [ 1 1 I.dX|.b e <.l.M.C.V.c.3.8 , K !.3.1.n.D.D.S.n.:.8 a P !.m.h.l.l.b.x.w.w.l.B.Q.h . . [ [ [ [ [ [ [ [ [ [ ",
"[ [ [ [ [ [ [ [ [ [ 1 1 { 0X].b ;.<.3.5.8.8.c.6.8 , t.Z.x.0.g.j.j.j.j.9.2.B L a.m.c.q.2.! 2.7.l.n.N.U.s o . [ [ [ [ [ [ [ [ [ [ ",
"[ [ [ [ [ [ [ [ [ [ 1 1 { 6Xs.b 8.M.y.B p.}.Z.8.8 , p.5Xb.q.x.M.M.m.x.v.n.m.P t.r.M.Z.4.7 v B.D.c.d.P a o . [ [ [ [ [ [ [ [ [ [ ",
"[ [ [ [ [ [ [ [ [ [ < 1 I.sXs.9 B.rX/.u.@XrX5Xd.= * !.5X1.,.3XdXsX7X}.V.S.M.Y.B >.M.7X/.% m 0X5X<.5.-.f o . [ [ [ [ [ [ [ [ [ [ ",
"[ [ [ [ [ [ [ [ [ [ 1 1 W.gX|.B #XjX8X.XyXjXsX|.A Z {.5Xm.d.{.8X<X&X|.B.V.B.XX!.7.}.kX,Xx  .hX7X8.d.XXZ o . [ [ [ [ [ [ [ [ [ [ ",
"[ [ [ [ [ [ [ [ [ [ 1 1 I.lXdX-XiXhXyXqXdXhXdX6X8X4X#X5X7X#XH f g A Y.a.5.N.0XrX#X6XgXyXOX=XgXiX#XrXdXP.o . [ [ [ [ [ [ [ [ [ [ ",
"[ [ [ [ [ [ [ [ [ [ < > V $XqX0XqX8X4X8X8X4X4X8XyXwXXX@XjXwXj o X , L Q.^ [.6XwX=X=X8X8X-X8X8X<X&XqX0XH o . [ [ [ [ [ [ [ [ [ [ ",
"[ [ [ [ [ [ [ [ [ [ : : $ t S Q.^.R.R.R.R.R.R.R.R.Q.R.oXkXyXV O # a | ).{.{.Q.R.Y.R.R.R.Y.R.R.W.R.U.A a X X [ [ [ [ [ [ [ [ [ [ ",
"[ [ [ [ [ [ [ [ [ [ u u O   f R.^.T.U.Y.| +.Y.L.T.Y.L./.8X.Xj # # a S T.W.W.R.U.U.U.U.Y.R.R.Y.R.R.S a # $ $ [ [ [ [ [ [ [ [ [ [ ",
"[ [ [ [ [ [ [ [ [ [ ' ) @ o A *X8X*X=X&XoX).XXXX$X$X^.P.I.{ y - > 2 l x c  .XX&XoXXXOX$X*X*X*X=X*X^.Z s c ) [ [ [ [ [ [ [ [ [ [ ",
"[ [ [ [ [ [ [ [ [ [ ' ' - o L 0XyXqX9X8X6X@X*X4X8X%X~. .} ` l y 2 s z c c { OX9X*X@X*X4X9X0X8XqX0X XF l ' [ [ [ [ [ [ [ [ [ [ [ ",
"[ [ [ [ [ [ [ [ [ [ [ [ [ [ [ [ [ [ [ [ [ [ [ [ [ [ [ [ [ [ [ [ [ [ [ [ [ [ [ [ [ [ [ [ [ [ [ [ [ [ [ [ [ [ [ [ [ [ [ [ [ [ [ [ ",
"[ [ [ [ [ [ [ [ [ [ [ [ [ [ [ [ [ [ [ [ [ [ [ [ [ [ [ [ [ [ [ [ [ [ [ [ [ [ [ [ [ [ [ [ [ [ [ [ [ [ [ [ [ [ [ [ [ [ [ [ [ [ [ [ ",
"[ [ [ [ [ [ [ [ [ [ [ [ [ [ [ [ [ [ [ [ [ [ [ [ [ [ [ [ [ [ [ [ [ [ [ [ [ [ [ [ [ [ [ [ [ [ [ [ [ [ [ [ [ [ [ [ [ [ [ [ [ [ [ [ ",
"[ [ [ [ [ [ [ [ [ [ [ [ [ [ [ [ [ [ [ [ [ [ [ [ [ [ [ [ [ [ [ [ [ [ [ [ [ [ [ [ [ [ [ [ [ [ [ [ [ [ [ [ [ [ [ [ [ [ [ [ [ [ [ [ ",
"[ [ [ [ [ [ [ [ [ [ [ [ [ [ [ [ [ [ [ [ [ [ [ [ [ [ [ [ [ [ [ [ [ [ [ [ [ [ [ [ [ [ [ [ [ [ [ [ [ [ [ [ [ [ [ [ [ [ [ [ [ [ [ [ ",
"[ [ [ [ [ [ [ [ [ [ [ [ [ [ [ [ [ [ [ [ [ [ [ [ [ [ [ [ [ [ [ [ [ [ [ [ [ [ [ [ [ [ [ [ [ [ [ [ [ [ [ [ [ [ [ [ [ [ [ [ [ [ [ [ ",
"[ [ [ [ [ [ [ [ [ [ [ [ [ [ [ [ [ [ [ [ [ [ [ [ [ [ [ [ [ [ [ [ [ [ [ [ [ [ [ [ [ [ [ [ [ [ [ [ [ [ [ [ [ [ [ [ [ [ [ [ [ [ [ [ ",
"[ [ [ [ [ [ [ [ [ [ [ [ [ [ [ [ [ [ [ [ [ [ [ [ [ [ [ [ [ [ [ [ [ [ [ [ [ [ [ [ [ [ [ [ [ [ [ [ [ [ [ [ [ [ [ [ [ [ [ [ [ [ [ [ ",
"[ [ [ [ [ [ [ [ [ [ [ [ [ [ [ [ [ [ [ [ [ [ [ [ [ [ [ [ [ [ [ [ [ [ [ [ [ [ [ [ [ [ [ [ [ [ [ [ [ [ [ [ [ [ [ [ [ [ [ [ [ [ [ [ ",
"[ [ [ [ [ [ [ [ [ [ [ [ [ [ [ [ [ [ [ [ [ [ [ [ [ [ [ [ [ [ [ [ [ [ [ [ [ [ [ [ [ [ [ [ [ [ [ [ [ [ [ [ [ [ [ [ [ [ [ [ [ [ [ [ ",
"[ [ [ [ [ [ [ [ [ [ [ [ [ [ [ [ [ [ [ [ [ [ [ [ [ [ [ [ [ [ [ [ [ [ [ [ [ [ [ [ [ [ [ [ [ [ [ [ [ [ [ [ [ [ [ [ [ [ [ [ [ [ [ [ ",
"[ [ [ [ [ [ [ [ [ [ [ [ [ [ [ [ [ [ [ [ [ [ [ [ [ [ [ [ [ [ [ [ [ [ [ [ [ [ [ [ [ [ [ [ [ [ [ [ [ [ [ [ [ [ [ [ [ [ [ [ [ [ [ [ "
};
