/* XPM */
static char *_d697008153b43ce8afb3c7c6bf64aa1xOKq3u2hjaZQDLzD[] = {
/* columns rows colors chars-per-pixel */
"64 64 41 1 ",
"  c #7E623C",
". c #79663E",
"X c #5A7E4C",
"o c #617C4D",
"O c #76704A",
"+ c #78774E",
"@ c #DC1F14",
"# c #FD0201",
"$ c #FC0302",
"% c #FA0402",
"& c #D42114",
"* c #8D5735",
"= c #8F5634",
"- c #965D3D",
"; c #955E3E",
": c #A25236",
"> c #8B6437",
", c #8B663A",
"< c #866A3B",
"1 c #866A3C",
"2 c #916034",
"3 c #93603F",
"4 c #807041",
"5 c #3E8D5A",
"6 c #3F8E5C",
"7 c #2AA363",
"8 c #2EA263",
"9 c #33A164",
"0 c #4F8752",
"q c #438658",
"w c #438F5C",
"e c #508652",
"r c #56915E",
"t c #6F8054",
"y c #4C9361",
"u c #4B9964",
"i c #4E9964",
"p c #4F9965",
"a c #559360",
"s c #559561",
"d c #509B66",
/* pixels */
"dddddddddddddddddddddddddddddddddddddddddddddddddddddddddddddddd",
"dddddddddddddddddddddddddddddddddddddddddddddddddddddddddddddddd",
"dddddddddddddddddddddddddddddddddddddddddddddddddddddddddddddddd",
"dddddddddddddddddddddddddddddddddddddddddddddddddddddddddddddddd",
"ddddddddddddddddddddddddddddddddddppdddddddddddddddddddddddddddd",
"ddddddddddddddddddddddddddppddppddppdddddddddddddddddddddddddddd",
"dddddddddddddddddddddddd6655655566556666ppdddddddddddddddddddddd",
"dddddddddddddddddddddddd8777777777777777uddddddddddddddddddddddd",
"dddddddddddddddddddddddd7777777777777777updddddddddddddddddddddd",
"dddddddddddddddddddddddd8777777777777777updddddddddddddddddddddd",
"dddddddddddddddddddddddd8777777777777777uddddddddddddddddddddddd",
"dddddddddddddddddddddddd8777777777777777uddddddddddddddddddddddd",
"ddddddddddddddddpddddddp8777777777777777uddddddddddddddddddddddd",
"dddddddddddddddd97777777777777777777777777777777qddddddddddddddd",
"dddddddddddddddd97777777777777777777777777777777qddddddddddddddd",
"dddddddddddddddd97777777777777777777777777777777qddddddddddddddd",
"dddddddddddddddd97777777777777777777777777777777qddddddddddddddd",
"dddddddddddddddd97777777777777777777777777777777qddddddddddddddd",
"dddddddddddddddd97777777777777777777777777777777qddddddddddddddd",
"dddddddddddddddd97777777777777777777777777777777qddddddddddddddd",
"dddddddddddddddd97777777777777777777777777777777qddddddddddddddd",
"dddddddddddddddd87777777777777777777777777777777qddddddddddddddd",
"dddddddddddddddd97777777777777777777777777777777qddddddddddddddd",
"dddddddddddddddd97777777777777777777777777777777qddddddddddddddd",
"dddddddddddddddd97777777777777777777777777777777qddddddddddddddd",
"dddddddddddddddd97777777777777777777777777777777qddddddddddddddd",
"dddddddd977777777777777777777777777777777777777777777777wddddddd",
"dddddddd977777777777777777777777777777777777777777777777wddddddd",
"dddddddd977777777777777777777777777777777777777777777777wddddddd",
"dddddddd977777777777777777777777777777777777777777777777wddddddd",
"dddddddd977777777777777777777777777777777777777777777777wddddddd",
"dddddddd977777777777777777777777777777777777777777777777wddddddd",
"dddddddd9777777777777777777777777777777777777777777777775pdddddd",
"dddddddd977777777777777777777777777777777777777777777777wpdddddd",
"dddddddd9777e = e77777777777777777777777777770 = 0777777wpdddddd",
"dddddddd97X&#####&X777777777777777777777777X&$$$$%@X7777wpdddddd",
"dddddddd9.#########.7777777777777777777777.%####$$##.777wddddddd",
"ddddddddo%#########$X77777777777777777777X%$####$$##$X77wddddddd",
"dddddddd@###########&77777777777777777778@##########$@77wddddddd",
"ddddddd+#############07777777777777777770###########$#07wddddddd",
"ddddddd4#############<777777777777777777 $$$########## 7wddddddd",
"dddddds:#############=777777777777777777*$############=7wddddddd",
"ddddddd;############# 777777777777777777<############# 7wddddddd",
"ddddddd+#############07777777777777777770#############07wddddddd",
"dddddddd&###########&77777777777777777777&###########@77wddddddd",
"ddddddddO###########Oayy1>>>>>>>>>>>>>>>rO###########Oyydddddddd",
"ddddddddd;########%4ddpp,222222222222222ad;$########4sdddddddddd",
"dddddddddd+@#####@+dddpp,222222222222222rdp+@#####@+dddddddddddd",
"ddddddddddddt3:;tddddddd,222222222222222ddddd+---+dddddddddddddd",
"dddddddddddddddddddddddd,222222222222222sdddddsddddddddddddddddd",
"dddddddddddddddddddddddd,222222222222222spdddddddddddddddddddddd",
"dddddddddddddddddddddddd,222222222222222spdddddddddddddddddddddd",
"dddddddddddddddddddddddd,222222222222222sddddddddddddddddddddddd",
"dddddddddddddddddddddddd,222222222222222rpdddddddddddddddddddddd",
"dddddddddddddddddddddddd,222222222222222sddddddddddddddddddddddd",
"dddddddddddddddddddddddd,22222222222222*sddddddddddddddddddddddd",
"dddddddddddddddddddddddd,222222222222222sddddddddddddddddddddddd",
"dddddddddddddddddddddddd4<<<<<<<11<1<<<<sddddddddddddddddddddddd",
"dddddddddddddddddddddddddddddddddddddddddddddddddddddddddddddddd",
"dddddddddddddddddddddddddddddddddddddddddddddddddddddddddddddddd",
"dddddddddddddddddddddddddddddddddddddddddddddddddddddddddddddddd",
"dddddddddddddddddddddddddddddddddddddddddddddddddddddddddddddddd",
"dddddddddddddddddddddddddddddddddddddddddddddddddddddddddddddddd",
"dddddddddddddddddddddddddddddddddddddddddddddddddddddddddddddddd"
};
