/* XPM */
static char *aebe980be9d84ecfcc90058bff564dd83mdfs1Mt1Y3LvAyd[] = {
/* columns rows colors chars-per-pixel */
"64 64 53 1 ",
"  c None",
". c gray24",
"X c #1E436B",
"o c #1A4877",
"O c #1A4878",
"+ c gray25",
"@ c #41667E",
"# c #916034",
"$ c #906234",
"% c #A9722F",
"& c #BA7E2C",
"* c #C68629",
"= c #C68729",
"- c #DA9526",
"; c #DE9924",
": c #D6982B",
"> c #D89A2E",
", c #E39F22",
"< c #E49D22",
"1 c #E49D23",
"2 c #E49D24",
"3 c #E59E24",
"4 c #85827A",
"5 c #1B538E",
"6 c #1F568D",
"7 c #094D94",
"8 c #034F9D",
"9 c #0E569F",
"0 c #0F569F",
"q c #10569F",
"w c #245382",
"e c #295D8B",
"r c #2B5E8B",
"t c #285E8D",
"y c #3D6581",
"u c #366494",
"i c #366495",
"p c #3A6592",
"a c #004FA0",
"s c #004FA2",
"d c #004FA3",
"f c #0051A2",
"g c #0050A3",
"h c #0051A3",
"j c #4F6E8D",
"k c #55708C",
"l c #5A728A",
"z c #677786",
"x c #6E7A84",
"c c #777D82",
"v c #7E8080",
"b c #7F8080",
"n c #808080",
/* pixels */
"                                                                ",
"                                                                ",
"                                                                ",
"                                                                ",
"                                                                ",
"                                                                ",
"                        hdhdhdhdhdhdhdhdd                       ",
"                        dhdhdhdhdhdhdhdhh                       ",
"                        dhdhdhdhhdhdhdhdh                       ",
"                        hdhdhdhddhdhdhdhd                       ",
"                        dhdhdhdhhdhdhdhdh                       ",
"                        hdhdhdhddhdhdhdhd                       ",
"                        dhdhdhdhhdhdhdhdhdhdhdh                 ",
"                        hdhdhdhddhdhdhdhdhdhdhh                 ",
"                        dhdhdhdhhdhdhdhdhdhdhdh                 ",
"                        hdhdhdhddhdhdhdhdhdhdhh                 ",
"                        dhdhdhdhdhddhdhdhdhdhdh                 ",
"                       wrrrrr655555rrrrrthdhdhh                 ",
"                  #####&11111%#####-1111:dhdhdhdhdhd8           ",
"                  #####&11111%#####-1111:hdhdhdhdhdhd           ",
"                  #####&11111%#####-1111:hdhhdhdhdhdd           ",
"                  #####&11111%#####-1111:dhddhdhdhdhd           ",
"                  #####&11111%#####-1111:hdhhdhdhdhd8           ",
"                  $$$$#=11111=&&&&&;1111:dhddhdhdhdhd           ",
"                        1111111111111111:dhdhdhdhdhdd           ",
"                        1111111111111111:hdhdhdhdhdh8           ",
"                        1111111111111111:dhdhdhdhdhdd           ",
"                        1111111111111111:hdhdhdhdhdhd           ",
"                        1111111111111111:dhdhddhhhdhd           ",
"                        @@@@@@@@@@@@@@@@yhdhdhh                 ",
"                        hdhdhdhdhdhdhdhdhdhdhdh                 ",
"                        hhdhdhdhdhdhdhdhdhdhdhh                 ",
"                        gggggggghdhdhdhddhdhdhh                 ",
"                        ggggggggdhdhdhdhhdhdhdh                 ",
"                        gggggggghdhdhdhddhdhdhh                 ",
"      1,,,,>bbbbbzgggggggggggjxxxxx9dhdhhdhdhddhhhdhibbbbb      ",
"      11311>bbbbbzggggggggggglbbbbbqhdhddhdhdhdhdhdhunbbbb      ",
"      11,21>bbbbbzggggggggggglbbbbbqdhdhhdhdhdhdhdhdpcbbbb      ",
"      11111>bbbbbzgggggggggggln4bbbqhdhddhdhdhdhdhdhunnbbb      ",
"      11111>bbbbbzggggggggggglncbbbqdhdhhdhdhdhdhdhdunnbbb      ",
"      3,322>nnnnnzgggggdhdhdhkccccc9hdhdhdhdhdhhdhhhp44444      ",
"                        dhdhhdhdhddhdhdhdhdhdhh      11111      ",
"                        hdhddhdhhdhdhdhdhdhdhdh      11111      ",
"                        dhdhhdhddhdhdhdhdhdhdhh      11111      ",
"                        hdhdhdhdhdhdhdhdhdhdhdh      11111      ",
"                        dhdhdhdhdhdhdhdhdhdhdhh      11111      ",
"                        hdhdhdhdhdhdhdhdhdhdhdh      33333      ",
"                        dhdhdhdhdhdhdhdhdhdhdhh                 ",
"                        hdhdhdhdhdhdhdhdhdhdhdh                 ",
"                        dhdhdhdhdhdhdhdhdhdhdhh                 ",
"                        hdhdhdhdhdhdhdhdhdhdhdh                 ",
"                        dhdhdhdhdhdhdhdhdhdhdhh                 ",
"                       XOOOOO7d88d8dd8dd8oOOOOo                 ",
"                  ...........            ...........+           ",
"                  ...........            ...........+           ",
"                  ...........            ...........+           ",
"                  ...........            ...........+           ",
"                  ...........            ...........+           ",
"                                                                ",
"                                                                ",
"                                                                ",
"                                                                ",
"                                                                ",
"                                                                "
};
